<?xml version="1.0" standalone="no"?><!DOCTYPE svg PUBLIC "-//W3C//DTD SVG 1.1//EN" "http://www.w3.org/Graphics/SVG/1.1/DTD/svg11.dtd"><svg class="icon" width="32px" height="32.00px" viewBox="0 0 1024 1024" version="1.1" xmlns="http://www.w3.org/2000/svg"><path fill="#515151" d="M800 832c-8 0-16-3.2-22.4-9.6l-576-576c-12.8-12.8-12.8-32 0-44.8 12.8-12.8 32-12.8 44.8 0l576 576c12.8 12.8 12.8 32 0 44.8-6.4 6.4-14.4 9.6-22.4 9.6z m-576 0c-8 0-16-3.2-22.4-9.6-12.8-12.8-12.8-32 0-44.8l576-576c12.8-12.8 32-12.8 44.8 0 12.8 12.8 12.8 32 0 44.8l-576 576C240 828.8 232 832 224 832z" /></svg>