<?xml version="1.0" standalone="no"?><!DOCTYPE svg PUBLIC "-//W3C//DTD SVG 1.1//EN" "http://www.w3.org/Graphics/SVG/1.1/DTD/svg11.dtd"><svg class="icon" width="32px" height="32.00px" viewBox="0 0 1024 1024" version="1.1" xmlns="http://www.w3.org/2000/svg"><path fill="#515151" d="M832 608c-8 0-16-3.2-22.4-9.6L512 300.8 214.4 598.4c-12.8 12.8-32 12.8-44.8 0-12.8-12.8-12.8-32 0-44.8l320-320c12.8-12.8 32-12.8 44.8 0l320 320c12.8 12.8 12.8 32 0 44.8-6.4 6.4-14.4 9.6-22.4 9.6zM512 960c-17.6 0-32-14.4-32-32V288c0-17.6 14.4-32 32-32s32 14.4 32 32v640c0 17.6-14.4 32-32 32z m320-800H192c-17.6 0-32-14.4-32-32s14.4-32 32-32h640c17.6 0 32 14.4 32 32s-14.4 32-32 32z" /></svg>