<?xml version="1.0" standalone="no"?><!DOCTYPE svg PUBLIC "-//W3C//DTD SVG 1.1//EN" "http://www.w3.org/Graphics/SVG/1.1/DTD/svg11.dtd"><svg class="icon" width="32px" height="32.00px" viewBox="0 0 1024 1024" version="1.1" xmlns="http://www.w3.org/2000/svg"><path fill="#ffffff" d="M986.860314 1023.985372H47.110485a46.722396 46.722396 0 1 1 0-93.443168h939.749829a46.722396 46.722396 0 1 1 0 93.443168z m-807.52899-165.786003a93.387905 93.387905 0 0 1-93.664216-98.780826l5.919536-104.916534a93.157105 93.157105 0 0 1 27.393699-60.820708L689.402842 26.478625c35.539968-35.336799 97.417155-35.278286 132.909989 0.011378l99.665018 99.101021a93.170108 93.170108 0 0 1 0 132.141196L351.542347 824.939771a94.034796 94.034796 0 0 1-61.189664 27.216536l-105.58943 5.908158a108.662973 108.662973 0 0 1-5.431929 0.13653z m6.091823-198.455597l-0.011378 0.022755-5.919535 104.989675 105.607309-5.906533 570.435502-567.17992-99.689399-99.123776z" /></svg>