<?xml version="1.0" encoding="UTF-8"?>
<svg width="32px" height="32px" viewBox="0 0 32 32" version="1.1" xmlns="http://www.w3.org/2000/svg" xmlns:xlink="http://www.w3.org/1999/xlink">
    <title>截图32</title>
    <defs>
        <filter x="-23.2%" y="-23.2%" width="146.4%" height="146.4%" filterUnits="objectBoundingBox" id="filter-1">
            <feOffset dx="0" dy="1" in="SourceAlpha" result="shadowOffsetOuter1"></feOffset>
            <feGaussianBlur stdDeviation="1" in="shadowOffsetOuter1" result="shadowBlurOuter1"></feGaussianBlur>
            <feColorMatrix values="0 0 0 0 0   0 0 0 0 0   0 0 0 0 0  0 0 0 0.3 0" type="matrix" in="shadowBlurOuter1" result="shadowMatrixOuter1"></feColorMatrix>
            <feMerge>
                <feMergeNode in="shadowMatrixOuter1"></feMergeNode>
                <feMergeNode in="SourceGraphic"></feMergeNode>
            </feMerge>
        </filter>
        <linearGradient x1="50%" y1="2.5010706%" x2="50%" y2="99.2713341%" id="linearGradient-2">
            <stop stop-color="#06B7D2" offset="0%"></stop>
            <stop stop-color="#46DFB9" offset="100%"></stop>
        </linearGradient>
        <filter x="-25.0%" y="-23.5%" width="150.0%" height="147.1%" filterUnits="objectBoundingBox" id="filter-3">
            <feOffset dx="0" dy="1" in="SourceAlpha" result="shadowOffsetOuter1"></feOffset>
            <feGaussianBlur stdDeviation="0.5" in="shadowOffsetOuter1" result="shadowBlurOuter1"></feGaussianBlur>
            <feColorMatrix values="0 0 0 0 0.00644006413   0 0 0 0 0.479322304   0 0 0 0 0.482993306  0 0 0 0.2 0" type="matrix" in="shadowBlurOuter1" result="shadowMatrixOuter1"></feColorMatrix>
            <feMerge>
                <feMergeNode in="shadowMatrixOuter1"></feMergeNode>
                <feMergeNode in="SourceGraphic"></feMergeNode>
            </feMerge>
        </filter>
    </defs>
    <g id="截图32" stroke="none" stroke-width="1" fill="none" fill-rule="evenodd">
        <g id="编组-2" filter="url(#filter-1)" transform="translate(2.000000, 2.000000)">
            <rect id="矩形" fill="url(#linearGradient-2)" x="0" y="0" width="28" height="28" rx="5.33333333"></rect>
            <g id="编组" filter="url(#filter-3)" transform="translate(6.000000, 5.666667)" fill="#FFFFFF" fill-rule="nonzero">
                <path d="M5.5248,7.96096 L7.69632,5.85728 L1.2416,1.77635684e-14 C-0.18496,4.31616 5.5248,7.96096 5.5248,7.96096 Z" id="路径" fill-opacity="0.7"></path>
                <path d="M12.40576,9.2048 L10.30848,9.2048 C9.8544,9.01184 10.14752,8.25248 10.14752,8.25248 C10.14752,8.25248 12.93184,6.09376 13.93696,4.68384 C14.9408,3.27264 14.77984,0.19904 14.77984,0.19904 L7.2368,7.33984 C7.46240709,7.1875888 7.72846579,7.1064448 8.00064,7.10688 C8.7488,7.10688 9.35552,7.7072 9.35552,8.44896 C9.35552,9.18976 8.7488,9.79104 8.00064,9.79104 C7.25088,9.79104 6.64448,9.18944 6.64448,8.45024 C6.64448,8.14496 6.74848,7.86528 6.91968,7.64064 L5.2672,9.2048 L3.59424,9.2048 C1.60896,9.2048 1.77635684e-14,10.79616 1.77635684e-14,12.7632 C1.77635684e-14,14.72736 1.60896,16.32 3.59424,16.32 C5.58144,16.32 7.18944,14.72768 7.18944,12.76288 C7.18944,12.15328 7.03456,11.58144 6.76384,11.08064 C7.55488,10.60416 8.54208,10.71648 9.31648,10.94112 C8.98446784,11.4907675 8.80907604,12.1207395 8.80928,12.76288 C8.80928,14.72768 10.41856,16.32 12.40448,16.32 C14.39104,16.32 16,14.72768 16,12.76288 C16.00128,10.79616 14.39104,9.2048 12.40576,9.2048 Z M3.59424,14.97312 C2.36096,14.97312 1.35968,13.98432 1.35968,12.76288 C1.35968,11.54048 2.36128,10.54912 3.59424,10.54912 C4.82944,10.54912 5.83008,11.54016 5.83008,12.76288 C5.83008,13.98464 4.82976,14.97312 3.59424,14.97312 Z M12.40576,14.97312 C11.17056,14.97312 10.1711999,13.98432 10.1711999,12.76288 C10.171045,12.2758339 10.3338145,11.8027323 10.6336,11.41888 L10.70336,11.33088 C11.1299695,10.8350578 11.7516689,10.5500344 12.40576,10.5503996 C13.64,10.5503996 14.6416,11.54144 14.6416,12.76416 C14.64032,13.98464 13.64,14.97312 12.40576,14.97312 Z" id="形状"></path>
            </g>
            <path d="M23.3333333,2.66666667 C24.412799,2.66666667 25.2925239,3.5218583 25.3319538,4.59168725 L25.3333333,4.66666667 L25.3333333,9.33333333 C25.3333333,9.70152317 25.0348565,10 24.6666667,10 C24.3152127,10 24.0272783,9.72804074 24.0018286,9.38308745 L24,9.33333333 L24,4.66666667 C24,4.31521273 23.7280407,4.02727829 23.3830874,4.00182858 L23.3333333,4 L18.6666667,4 C18.2984768,4 18,3.70152317 18,3.33333333 C18,2.9818794 18.2719593,2.69394496 18.6169126,2.66849525 L18.6666667,2.66666667 L23.3333333,2.66666667 Z" id="路径-2" fill-opacity="0.6" fill="#FFFFFF" fill-rule="nonzero"></path>
            <path d="M8,18 C9.07946565,18 9.95919059,18.8551916 9.99862051,19.9250206 L10,20 L10,24.6666667 C10,25.0348565 9.70152317,25.3333333 9.33333333,25.3333333 C8.9818794,25.3333333 8.69394496,25.0613741 8.66849525,24.7164208 L8.66666667,24.6666667 L8.66666667,20 C8.66666667,19.6485461 8.3947074,19.3606116 8.04975411,19.3351619 L8,19.3333333 L3.33333333,19.3333333 C2.9651435,19.3333333 2.66666667,19.0348565 2.66666667,18.6666667 C2.66666667,18.3152127 2.93862593,18.0272783 3.28357922,18.0018286 L3.33333333,18 L8,18 Z" id="路径-2" fill-opacity="0.6" fill="#FFFFFF" fill-rule="nonzero" transform="translate(6.333333, 21.666667) scale(-1, -1) translate(-6.333333, -21.666667) "></path>
        </g>
    </g>
</svg>